<svg xmlns="http://www.w3.org/2000/svg" viewBox="0 0 183.29 66.01"><defs><style>.cls-1{fill:#34e2a7;}.cls-2{fill:#fff;}</style></defs><title>Logo White</title><g id="Layer_2" data-name="Layer 2"><g id="Layer_1-2" data-name="Layer 1"><path class="cls-1" d="M65.72,32.3l-9.19-9.19L53.2,19.78a1,1,0,0,0-.7-.29H45.63a.29.29,0,0,1-.26-.16.3.3,0,0,1,0-.3l.7-1A21.07,21.07,0,0,1,48,15.93a1,1,0,0,0,0-1.4L33.71.29a1,1,0,0,0-1.41,0l-32,32a1,1,0,0,0,0,1.41l32,32a1,1,0,0,0,1.41,0l32-32a1,1,0,0,0,0-1.41Zm-26.1-20a.27.27,0,0,1,.2.09l2.84,2.83a.3.3,0,0,1,0,.38,25.86,25.86,0,0,0-2.39,3.75.29.29,0,0,1-.26.16H33a.29.29,0,0,1-.27-.18.3.3,0,0,1,.06-.32l6.63-6.62A.29.29,0,0,1,39.62,12.28ZM21.15,48.19a17.2,17.2,0,0,1,20.13-2.62,17.7,17.7,0,0,1,3.58,2.62.26.26,0,0,1,.09.21.3.3,0,0,1-.09.21L33.21,60.26a.3.3,0,0,1-.41,0L21.15,48.61a.31.31,0,0,1-.09-.22A.34.34,0,0,1,21.15,48.19ZM19.57,19,32.8,5.76A.29.29,0,0,1,33,5.67a.27.27,0,0,1,.2.09L36.42,9a.29.29,0,0,1,0,.42l-10,10a.29.29,0,0,1-.21.09H19.77a.29.29,0,0,1-.27-.18A.31.31,0,0,1,19.57,19ZM17.75,45.21l-12-12a.27.27,0,0,1-.09-.2.29.29,0,0,1,.09-.21l9-9a.32.32,0,0,1,.21-.08H38.09a.3.3,0,0,1,.23.11.32.32,0,0,1,0,.27,26,26,0,0,0-.74,3.26,26.58,26.58,0,0,0,.83,12.13.28.28,0,0,1-.34.37,21.44,21.44,0,0,0-19.95,5.37A.3.3,0,0,1,17.75,45.21Zm42.5-12-12,12a.29.29,0,0,1-.21.09.32.32,0,0,1-.2-.08,22,22,0,0,0-3.5-2.74.27.27,0,0,1-.11-.1,22.39,22.39,0,0,1-1.37-18.49.28.28,0,0,1,.27-.18H51a.32.32,0,0,1,.21.08l9,9A.28.28,0,0,1,60.25,33.21Z"/><path class="cls-2" d="M87.15,15.17H84.56a2.83,2.83,0,0,0-2.64-1.45A3.36,3.36,0,0,0,78.5,17.4,3.38,3.38,0,0,0,82,21.1a3,3,0,0,0,3.19-2.59H81.33V16.79h6.1v2A5.7,5.7,0,0,1,76.18,17.4a5.57,5.57,0,0,1,5.74-5.75A5.16,5.16,0,0,1,87.15,15.17Z"/><path class="cls-2" d="M93,23.18a4.32,4.32,0,0,1-4.48-4.61A4.28,4.28,0,0,1,93,14a4.19,4.19,0,0,1,4.4,4.41,5.1,5.1,0,0,1-.07.87H90.85A2.08,2.08,0,0,0,93,21.31a1.83,1.83,0,0,0,1.79-1.08h2.43A4.14,4.14,0,0,1,93,23.18Zm-2.18-5.44H95.1A2,2,0,0,0,93,15.82,2.07,2.07,0,0,0,90.86,17.74Z"/><path class="cls-2" d="M102.94,23.18a4.37,4.37,0,0,1-4.53-4.61,4.6,4.6,0,1,1,9.19,0A4.47,4.47,0,0,1,102.94,23.18Zm0-2a2.38,2.38,0,0,0,2.34-2.65A2.35,2.35,0,0,0,103,15.93c-1.19,0-2.27.86-2.27,2.64S101.73,21.22,102.94,21.22Z"/><path class="cls-2" d="M109.1,11.11h2.25v4.11A3.46,3.46,0,0,1,114.13,14c2,0,3.48,1.36,3.48,3.82V23h-2.26V18.11c0-1.44-.79-2.21-2-2.21a1.94,1.94,0,0,0-2,2.21V23H109.1Z"/><path class="cls-2" d="M123.11,14a3.53,3.53,0,0,1,3,1.41V14.11h2.27V23h-2.27V21.73a3.51,3.51,0,0,1-3,1.45c-2.25,0-4.06-1.85-4.06-4.64S120.84,14,123.11,14Zm.58,2a2.38,2.38,0,0,0-2.35,2.59,2.44,2.44,0,0,0,2.35,2.66,2.4,2.4,0,0,0,2.37-2.63A2.4,2.4,0,0,0,123.69,16Z"/><path class="cls-2" d="M136.41,15.93l-3.93,5.26h4V23h-6.54V21.22l3.9-5.26h-3.89V14.11h6.48Z"/><path class="cls-2" d="M141.4,14a3.52,3.52,0,0,1,2.95,1.41V14.11h2.27V23h-2.27V21.73a3.5,3.5,0,0,1-3,1.45c-2.26,0-4.07-1.85-4.07-4.64S139.13,14,141.4,14Zm.58,2a2.38,2.38,0,0,0-2.35,2.59A2.44,2.44,0,0,0,142,21.2a2.4,2.4,0,0,0,2.37-2.63A2.4,2.4,0,0,0,142,16Z"/><path class="cls-2" d="M150.92,23h-2.26V14.11h2.26V15.5A3.09,3.09,0,0,1,153.66,14v2.37h-.6c-1.34,0-2.14.52-2.14,2.24Z"/><path class="cls-2" d="M158.47,14a3.64,3.64,0,0,1,2.91,1.38V11.11h2.29V23h-2.29V21.72a3.37,3.37,0,0,1-2.93,1.46c-2.27,0-4.08-1.85-4.08-4.64S156.18,14,158.47,14Zm.56,2a2.38,2.38,0,0,0-2.35,2.59A2.44,2.44,0,0,0,159,21.2a2.4,2.4,0,0,0,2.37-2.63A2.4,2.4,0,0,0,159,16Z"/><path class="cls-2" d="M169.1,23.18c-2.24,0-3.8-1.3-3.9-3h2.28a1.47,1.47,0,0,0,1.61,1.19c.88,0,1.37-.4,1.37-.92,0-1.59-5.05-.58-5.05-3.85,0-1.48,1.32-2.67,3.53-2.67s3.47,1.17,3.6,2.94h-2.16a1.34,1.34,0,0,0-1.5-1.16c-.84,0-1.28.34-1.28.86,0,1.63,5,.61,5,3.88C172.62,22,171.28,23.18,169.1,23.18Z"/><path class="cls-2" d="M81,27.65c2.71,0,4.06,1.56,4.06,3.45a3.26,3.26,0,0,1-2.56,3.24l2.69,4.56H82.53l-2.48-4.39H79V38.9H76.73V27.65Zm-.08,1.87H79v3.3h1.89c1.25,0,1.82-.66,1.82-1.67S82.12,29.52,80.87,29.52Z"/><path class="cls-2" d="M86.49,27.59a1.32,1.32,0,0,1,1.38-1.33,1.33,1.33,0,1,1,0,2.65A1.32,1.32,0,0,1,86.49,27.59ZM86.73,30H89V38.9H86.73Z"/><path class="cls-2" d="M94.41,39c-2.24,0-3.8-1.3-3.9-3h2.27a1.49,1.49,0,0,0,1.61,1.19c.89,0,1.37-.4,1.37-.92,0-1.59-5-.58-5-3.85,0-1.48,1.32-2.68,3.53-2.68s3.46,1.18,3.59,3H95.68a1.33,1.33,0,0,0-1.5-1.16c-.83,0-1.27.34-1.27.86,0,1.63,5,.61,5,3.88C97.92,37.88,96.58,39,94.41,39Z"/><path class="cls-2" d="M99.57,27h2.25v6.79l3-3.79h2.93l-3.93,4.48,4,4.45h-2.93l-3-3.81V38.9H99.57Z"/><path class="cls-2" d="M113,27.65h2.56L119.11,36l3.58-8.36h2.54V38.9H123V31.58l-3,7.32h-1.7l-3-7.32V38.9H113Z"/><path class="cls-2" d="M130.94,29.82a3.53,3.53,0,0,1,2.95,1.42V30h2.27V38.9h-2.27V37.59a3.5,3.5,0,0,1-3,1.45c-2.26,0-4.06-1.85-4.06-4.64S128.67,29.82,130.94,29.82Zm.58,2a2.38,2.38,0,0,0-2.35,2.59,2.44,2.44,0,0,0,2.35,2.66,2.4,2.4,0,0,0,2.37-2.63A2.4,2.4,0,0,0,131.52,31.81Z"/><path class="cls-2" d="M143.41,29.82c2.28,0,4.07,1.79,4.07,4.58S145.69,39,143.41,39a3.63,3.63,0,0,1-2.95-1.42v5.53H138.2V30h2.26v1.29A3.56,3.56,0,0,1,143.41,29.82Zm-.6,2a2.4,2.4,0,0,0-2.35,2.62,2.41,2.41,0,0,0,2.35,2.63,2.45,2.45,0,0,0,2.37-2.66A2.38,2.38,0,0,0,142.81,31.81Z"/><path class="cls-2" d="M154.21,29.82c2.29,0,4.08,1.79,4.08,4.58S156.5,39,154.21,39a3.64,3.64,0,0,1-3-1.42v5.53H149V30h2.25v1.29A3.59,3.59,0,0,1,154.21,29.82Zm-.59,2a2.41,2.41,0,0,0-2.36,2.62,2.41,2.41,0,0,0,2.36,2.63A2.45,2.45,0,0,0,156,34.4,2.38,2.38,0,0,0,153.62,31.81Z"/><path class="cls-2" d="M159.54,27.59a1.32,1.32,0,0,1,1.38-1.33,1.33,1.33,0,1,1,0,2.65A1.32,1.32,0,0,1,159.54,27.59Zm.24,2.38H162V38.9h-2.25Z"/><path class="cls-2" d="M170.31,34a2,2,0,1,0-4,0V38.9h-2.26V30h2.26v1.11A3.33,3.33,0,0,1,169,29.84c2.08,0,3.56,1.35,3.56,3.82V38.9h-2.25Z"/><path class="cls-2" d="M178.06,29.82A3.49,3.49,0,0,1,181,31.24V30h2.28v9a4.09,4.09,0,0,1-4.42,4.34c-2.51,0-4.27-1.26-4.5-3.31h2.24a2.11,2.11,0,0,0,2.2,1.34A2.08,2.08,0,0,0,181,39V37.58A3.51,3.51,0,0,1,178.06,39c-2.27,0-4.07-1.85-4.07-4.64S175.79,29.82,178.06,29.82Zm.58,2a2.38,2.38,0,0,0-2.35,2.59,2.44,2.44,0,0,0,2.35,2.66A2.4,2.4,0,0,0,181,34.43,2.39,2.39,0,0,0,178.64,31.81Z"/><path class="cls-2" d="M76.73,43.51H79V54.76H76.73Z"/><path class="cls-2" d="M87.35,49.82a2,2,0,1,0-4,0v4.94H81.1V45.83h2.26v1.11a3.32,3.32,0,0,1,2.69-1.24c2.08,0,3.56,1.35,3.56,3.82v5.24H87.35Z"/><path class="cls-2" d="M91.31,43.44a1.32,1.32,0,0,1,1.38-1.32,1.33,1.33,0,1,1-1.38,1.32Zm.24,2.39h2.26v8.93H91.55Z"/><path class="cls-2" d="M96.12,47.68H95.06V45.83h1.06V43.62H98.4v2.21h2v1.85h-2V52c0,.6.24.85.95.85h1v1.91H99c-1.71,0-2.86-.73-2.86-2.78Z"/><path class="cls-2" d="M101.58,43.44A1.32,1.32,0,0,1,103,42.12a1.33,1.33,0,1,1-1.38,1.32Zm.24,2.39h2.25v8.93h-2.25Z"/><path class="cls-2" d="M109.63,45.68a3.54,3.54,0,0,1,3,1.42V45.83h2.27v8.93h-2.27V53.45a3.53,3.53,0,0,1-3,1.45c-2.25,0-4.06-1.85-4.06-4.64S107.36,45.68,109.63,45.68Zm.58,2a2.38,2.38,0,0,0-2.35,2.59,2.44,2.44,0,0,0,2.35,2.66,2.64,2.64,0,0,0,0-5.25Z"/><path class="cls-2" d="M117.24,47.68h-1.06V45.83h1.06V43.62h2.27v2.21h2v1.85h-2V52c0,.6.25.85.95.85h1.05v1.91h-1.42c-1.7,0-2.85-.73-2.85-2.78Z"/><path class="cls-2" d="M122.69,43.44a1.39,1.39,0,0,1,2.78,0,1.39,1.39,0,0,1-2.78,0Zm.25,2.39h2.25v8.93h-2.25Z"/><path class="cls-2" d="M128.65,45.83l2.25,6.85,2.26-6.85h2.4l-3.3,8.93h-2.74l-3.29-8.93Z"/><path class="cls-2" d="M140.21,54.9a4.32,4.32,0,0,1-4.48-4.61,4.29,4.29,0,0,1,4.48-4.61,4.19,4.19,0,0,1,4.4,4.42,5.09,5.09,0,0,1-.06.87H138A2.09,2.09,0,0,0,140.16,53,1.83,1.83,0,0,0,142,52h2.44A4.15,4.15,0,0,1,140.21,54.9ZM138,49.45h4.24a2,2,0,0,0-2.13-1.91A2.06,2.06,0,0,0,138,49.45Z"/></g></g></svg>